<svg width="47" height="47" viewBox="0 0 47 47" fill="none" xmlns="http://www.w3.org/2000/svg">
<path d="M23.5 6.56866C17.1213 6.56866 8.84228 8.16688 8.84228 8.16688L8.82144 8.19069C5.91626 8.65532 3.69049 11.1517 3.69049 14.1877V23.3306V23.3335V32.4734V32.4764C3.69333 33.9264 4.21296 35.3278 5.15609 36.4291C6.09922 37.5305 7.40406 38.2595 8.83632 38.4853L8.84228 38.4943C8.84228 38.4943 17.1213 40.0955 23.5 40.0955C29.8787 40.0955 38.1578 38.4943 38.1578 38.4943L38.1607 38.4913C39.5945 38.2659 40.9009 37.5363 41.8447 36.4337C42.7886 35.3311 43.308 33.9278 43.3095 32.4764V32.4734V23.3335V23.3306V14.1877C43.3074 12.7372 42.7881 11.3351 41.8449 10.2331C40.9017 9.1312 39.5965 8.40173 38.1637 8.17581L38.1578 8.16688C38.1578 8.16688 29.8787 6.56866 23.5 6.56866ZM18.9286 16.3187L31.1191 23.3306L18.9286 30.3425V16.3187Z" fill="black"/>
</svg>
